# xmcd CD database file
#
# Track frame offsets:
#	150
#	18506
#	49887
#	74271
#	91032
#	115724
#	138186
#	157604
#	178150
#	199782
#	220832
#
# Disc length: 3246 seconds
#
# Revision: 0
# Processed by: cddbd v1.5.2PL0 Copyright (c) Steve Scherf et al.
# Submitted via: CDex 1.51
#
DISCID=8c0cac0b
DTITLE=John Adorney - The Fountain
DYEAR=2009
DGENRE=New Age
TTITLE0=Safe Haven
TTITLE1=The Fountain
TTITLE2=Comme Le Vent
TTITLE3=Feather On The Wind
TTITLE4=Echoes Of Thunder
TTITLE5=Even In Your Darkest Hour
TTITLE6=The Water Jar
TTITLE7=Every Breath
TTITLE8=An Ocean In The Drop
TTITLE9=Silk And Stone
TTITLE10=Turn Within
EXTD=YEAR: 2009
EXTT0=
EXTT1=
EXTT2=
EXTT3=
EXTT4=
EXTT5=
EXTT6=
EXTT7=
EXTT8=
EXTT9=
EXTT10=
PLAYORDER=
